<svg xmlns="http://www.w3.org/2000/svg" xmlns:xlink="http://www.w3.org/1999/xlink" width="500" zoomAndPan="magnify" viewBox="0 0 375 74.999997" height="100" preserveAspectRatio="xMidYMid meet" version="1.0"><defs><g/><clipPath id="2a98365a0f"><path d="M 76.457031 12.878906 L 149.910156 12.878906 L 149.910156 62.378906 L 76.457031 62.378906 Z M 76.457031 12.878906 " clip-rule="nonzero"/></clipPath></defs><rect x="-37.5" width="450" fill="#ffffff" y="-7.5" height="89.999996" fill-opacity="1"/><rect x="-37.5" width="450" fill="#ffffff" y="-7.5" height="89.999996" fill-opacity="1"/><rect x="-37.5" width="450" fill="#141414" y="-7.5" height="89.999996" fill-opacity="1"/><g fill="#e6efe9" fill-opacity="1"><g transform="translate(172.918354, 36.702267)"><g><path d="M 15.34375 -12.5625 L 15.34375 0 L 12.28125 0 L 12.28125 -7.53125 L 9.46875 0 L 7 0 L 4.171875 -7.5625 L 4.171875 0 L 1.109375 0 L 1.109375 -12.5625 L 4.734375 -12.5625 L 8.25 -3.875 L 11.75 -12.5625 Z M 15.34375 -12.5625 "/></g></g></g><g fill="#e6efe9" fill-opacity="1"><g transform="translate(190.14735, 36.702267)"><g><path d="M 8.9375 -2.21875 L 4.25 -2.21875 L 3.484375 0 L 0.28125 0 L 4.828125 -12.5625 L 8.375 -12.5625 L 12.921875 0 L 9.6875 0 Z M 8.140625 -4.578125 L 6.59375 -9.1875 L 5.046875 -4.578125 Z M 8.140625 -4.578125 "/></g></g></g><g fill="#e6efe9" fill-opacity="1"><g transform="translate(204.134732, 36.702267)"><g><path d="M 9.453125 -8.59375 C 9.222656 -9.007812 8.894531 -9.328125 8.46875 -9.546875 C 8.050781 -9.773438 7.554688 -9.890625 6.984375 -9.890625 C 5.992188 -9.890625 5.195312 -9.5625 4.59375 -8.90625 C 4 -8.257812 3.703125 -7.390625 3.703125 -6.296875 C 3.703125 -5.140625 4.015625 -4.234375 4.640625 -3.578125 C 5.273438 -2.929688 6.140625 -2.609375 7.234375 -2.609375 C 7.984375 -2.609375 8.617188 -2.800781 9.140625 -3.1875 C 9.660156 -3.570312 10.039062 -4.117188 10.28125 -4.828125 L 6.390625 -4.828125 L 6.390625 -7.09375 L 13.046875 -7.09375 L 13.046875 -4.25 C 12.828125 -3.476562 12.441406 -2.765625 11.890625 -2.109375 C 11.347656 -1.453125 10.660156 -0.921875 9.828125 -0.515625 C 8.992188 -0.109375 8.050781 0.09375 7 0.09375 C 5.757812 0.09375 4.648438 -0.175781 3.671875 -0.71875 C 2.703125 -1.269531 1.945312 -2.023438 1.40625 -2.984375 C 0.863281 -3.953125 0.59375 -5.054688 0.59375 -6.296875 C 0.59375 -7.546875 0.863281 -8.65625 1.40625 -9.625 C 1.945312 -10.59375 2.703125 -11.347656 3.671875 -11.890625 C 4.640625 -12.441406 5.742188 -12.71875 6.984375 -12.71875 C 8.484375 -12.71875 9.75 -12.351562 10.78125 -11.625 C 11.820312 -10.894531 12.507812 -9.882812 12.84375 -8.59375 Z M 9.453125 -8.59375 "/></g></g></g><g fill="#e6efe9" fill-opacity="1"><g transform="translate(218.569855, 36.702267)"><g><path d="M 9.453125 -8.59375 C 9.222656 -9.007812 8.894531 -9.328125 8.46875 -9.546875 C 8.050781 -9.773438 7.554688 -9.890625 6.984375 -9.890625 C 5.992188 -9.890625 5.195312 -9.5625 4.59375 -8.90625 C 4 -8.257812 3.703125 -7.390625 3.703125 -6.296875 C 3.703125 -5.140625 4.015625 -4.234375 4.640625 -3.578125 C 5.273438 -2.929688 6.140625 -2.609375 7.234375 -2.609375 C 7.984375 -2.609375 8.617188 -2.800781 9.140625 -3.1875 C 9.660156 -3.570312 10.039062 -4.117188 10.28125 -4.828125 L 6.390625 -4.828125 L 6.390625 -7.09375 L 13.046875 -7.09375 L 13.046875 -4.25 C 12.828125 -3.476562 12.441406 -2.765625 11.890625 -2.109375 C 11.347656 -1.453125 10.660156 -0.921875 9.828125 -0.515625 C 8.992188 -0.109375 8.050781 0.09375 7 0.09375 C 5.757812 0.09375 4.648438 -0.175781 3.671875 -0.71875 C 2.703125 -1.269531 1.945312 -2.023438 1.40625 -2.984375 C 0.863281 -3.953125 0.59375 -5.054688 0.59375 -6.296875 C 0.59375 -7.546875 0.863281 -8.65625 1.40625 -9.625 C 1.945312 -10.59375 2.703125 -11.347656 3.671875 -11.890625 C 4.640625 -12.441406 5.742188 -12.71875 6.984375 -12.71875 C 8.484375 -12.71875 9.75 -12.351562 10.78125 -11.625 C 11.820312 -10.894531 12.507812 -9.882812 12.84375 -8.59375 Z M 9.453125 -8.59375 "/></g></g></g><g fill="#e6efe9" fill-opacity="1"><g transform="translate(233.004977, 36.702267)"><g><path d="M 4.171875 -12.5625 L 4.171875 0 L 1.109375 0 L 1.109375 -12.5625 Z M 4.171875 -12.5625 "/></g></g></g><g fill="#e6efe9" fill-opacity="1"><g transform="translate(239.076386, 36.702267)"><g><path d="M 4.171875 -10.109375 L 4.171875 -7.578125 L 8.265625 -7.578125 L 8.265625 -5.203125 L 4.171875 -5.203125 L 4.171875 -2.453125 L 8.8125 -2.453125 L 8.8125 0 L 1.109375 0 L 1.109375 -12.5625 L 8.8125 -12.5625 L 8.8125 -10.109375 Z M 4.171875 -10.109375 "/></g></g></g><g fill="#e6efe9" fill-opacity="1"><g transform="translate(249.553523, 36.702267)"><g/></g></g><g fill="#e6efe9" fill-opacity="1"><g transform="translate(254.138456, 36.702267)"><g><path d="M 4.171875 -2.359375 L 8.1875 -2.359375 L 8.1875 0 L 1.109375 0 L 1.109375 -12.5625 L 4.171875 -12.5625 Z M 4.171875 -2.359375 "/></g></g></g><g fill="#e6efe9" fill-opacity="1"><g transform="translate(263.469389, 36.702267)"><g><path d="M 4.171875 -10.109375 L 4.171875 -7.578125 L 8.265625 -7.578125 L 8.265625 -5.203125 L 4.171875 -5.203125 L 4.171875 -2.453125 L 8.8125 -2.453125 L 8.8125 0 L 1.109375 0 L 1.109375 -12.5625 L 8.8125 -12.5625 L 8.8125 -10.109375 Z M 4.171875 -10.109375 "/></g></g></g><g fill="#e6efe9" fill-opacity="1"><g transform="translate(273.946526, 36.702267)"><g><path d="M 8.9375 -2.21875 L 4.25 -2.21875 L 3.484375 0 L 0.28125 0 L 4.828125 -12.5625 L 8.375 -12.5625 L 12.921875 0 L 9.6875 0 Z M 8.140625 -4.578125 L 6.59375 -9.1875 L 5.046875 -4.578125 Z M 8.140625 -4.578125 "/></g></g></g><g fill="#e6efe9" fill-opacity="1"><g transform="translate(287.93391, 36.702267)"><g><path d="M 7.515625 0 L 4.90625 -4.75 L 4.171875 -4.75 L 4.171875 0 L 1.109375 0 L 1.109375 -12.5625 L 6.25 -12.5625 C 7.238281 -12.5625 8.082031 -12.390625 8.78125 -12.046875 C 9.476562 -11.703125 10 -11.226562 10.34375 -10.625 C 10.695312 -10.019531 10.875 -9.347656 10.875 -8.609375 C 10.875 -7.773438 10.632812 -7.03125 10.15625 -6.375 C 9.6875 -5.71875 8.992188 -5.253906 8.078125 -4.984375 L 10.96875 0 Z M 4.171875 -6.90625 L 6.0625 -6.90625 C 6.625 -6.90625 7.046875 -7.039062 7.328125 -7.3125 C 7.609375 -7.59375 7.75 -7.984375 7.75 -8.484375 C 7.75 -8.960938 7.609375 -9.335938 7.328125 -9.609375 C 7.046875 -9.890625 6.625 -10.03125 6.0625 -10.03125 L 4.171875 -10.03125 Z M 4.171875 -6.90625 "/></g></g></g><g fill="#e6efe9" fill-opacity="1"><g transform="translate(300.398993, 36.702267)"><g><path d="M 12.359375 0 L 9.296875 0 L 4.171875 -7.75 L 4.171875 0 L 1.109375 0 L 1.109375 -12.5625 L 4.171875 -12.5625 L 9.296875 -4.78125 L 9.296875 -12.5625 L 12.359375 -12.5625 Z M 12.359375 0 "/></g></g></g><g fill="#e6efe9" fill-opacity="1"><g transform="translate(314.655025, 36.702267)"><g><path d="M 5.65625 0.125 C 4.738281 0.125 3.914062 -0.0195312 3.1875 -0.3125 C 2.457031 -0.613281 1.875 -1.054688 1.4375 -1.640625 C 1 -2.234375 0.769531 -2.941406 0.75 -3.765625 L 4.015625 -3.765625 C 4.054688 -3.296875 4.210938 -2.9375 4.484375 -2.6875 C 4.765625 -2.445312 5.125 -2.328125 5.5625 -2.328125 C 6.019531 -2.328125 6.378906 -2.429688 6.640625 -2.640625 C 6.898438 -2.847656 7.03125 -3.140625 7.03125 -3.515625 C 7.03125 -3.816406 6.925781 -4.066406 6.71875 -4.265625 C 6.507812 -4.472656 6.253906 -4.644531 5.953125 -4.78125 C 5.648438 -4.914062 5.21875 -5.066406 4.65625 -5.234375 C 3.84375 -5.484375 3.175781 -5.734375 2.65625 -5.984375 C 2.144531 -6.234375 1.703125 -6.601562 1.328125 -7.09375 C 0.960938 -7.582031 0.78125 -8.21875 0.78125 -9 C 0.78125 -10.175781 1.203125 -11.09375 2.046875 -11.75 C 2.898438 -12.414062 4.007812 -12.75 5.375 -12.75 C 6.757812 -12.75 7.875 -12.414062 8.71875 -11.75 C 9.5625 -11.09375 10.015625 -10.171875 10.078125 -8.984375 L 6.765625 -8.984375 C 6.742188 -9.390625 6.59375 -9.707031 6.3125 -9.9375 C 6.039062 -10.175781 5.691406 -10.296875 5.265625 -10.296875 C 4.890625 -10.296875 4.585938 -10.195312 4.359375 -10 C 4.140625 -9.800781 4.03125 -9.519531 4.03125 -9.15625 C 4.03125 -8.75 4.21875 -8.429688 4.59375 -8.203125 C 4.976562 -7.972656 5.578125 -7.726562 6.390625 -7.46875 C 7.203125 -7.195312 7.859375 -6.929688 8.359375 -6.671875 C 8.867188 -6.421875 9.3125 -6.054688 9.6875 -5.578125 C 10.0625 -5.109375 10.25 -4.5 10.25 -3.75 C 10.25 -3.03125 10.066406 -2.375 9.703125 -1.78125 C 9.335938 -1.195312 8.804688 -0.734375 8.109375 -0.390625 C 7.421875 -0.046875 6.601562 0.125 5.65625 0.125 Z M 5.65625 0.125 "/></g></g></g><g fill="#e6efe9" fill-opacity="1"><g transform="translate(224.686809, 52.627226)"><g><path d="M 4.171875 -5.359375 L 4.171875 -4.484375 L 2.75 -4.484375 L 2.75 0 L 1.671875 0 L 1.671875 -4.484375 L 0.25 -4.484375 L 0.25 -5.359375 Z M 4.171875 -5.359375 "/></g></g></g><g fill="#e6efe9" fill-opacity="1"><g transform="translate(231.687855, 52.627226)"><g><path d="M 3.015625 0.046875 C 2.515625 0.046875 2.050781 -0.0664062 1.625 -0.296875 C 1.207031 -0.535156 0.875 -0.863281 0.625 -1.28125 C 0.382812 -1.695312 0.265625 -2.164062 0.265625 -2.6875 C 0.265625 -3.207031 0.382812 -3.675781 0.625 -4.09375 C 0.875 -4.507812 1.207031 -4.835938 1.625 -5.078125 C 2.050781 -5.316406 2.515625 -5.4375 3.015625 -5.4375 C 3.523438 -5.4375 3.988281 -5.316406 4.40625 -5.078125 C 4.820312 -4.835938 5.148438 -4.507812 5.390625 -4.09375 C 5.628906 -3.675781 5.75 -3.207031 5.75 -2.6875 C 5.75 -2.164062 5.628906 -1.695312 5.390625 -1.28125 C 5.148438 -0.863281 4.816406 -0.535156 4.390625 -0.296875 C 3.972656 -0.0664062 3.515625 0.046875 3.015625 0.046875 Z M 3.015625 -0.90625 C 3.335938 -0.90625 3.617188 -0.976562 3.859375 -1.125 C 4.109375 -1.269531 4.300781 -1.476562 4.4375 -1.75 C 4.582031 -2.019531 4.65625 -2.332031 4.65625 -2.6875 C 4.65625 -3.050781 4.582031 -3.363281 4.4375 -3.625 C 4.300781 -3.894531 4.109375 -4.101562 3.859375 -4.25 C 3.617188 -4.394531 3.335938 -4.46875 3.015625 -4.46875 C 2.691406 -4.46875 2.40625 -4.394531 2.15625 -4.25 C 1.90625 -4.101562 1.710938 -3.894531 1.578125 -3.625 C 1.441406 -3.363281 1.375 -3.050781 1.375 -2.6875 C 1.375 -2.332031 1.441406 -2.019531 1.578125 -1.75 C 1.710938 -1.476562 1.90625 -1.269531 2.15625 -1.125 C 2.40625 -0.976562 2.691406 -0.90625 3.015625 -0.90625 Z M 3.015625 -0.90625 "/></g></g></g><g fill="#e6efe9" fill-opacity="1"><g transform="translate(240.285618, 52.627226)"><g/></g></g><g fill="#e6efe9" fill-opacity="1"><g transform="translate(244.684319, 52.627226)"><g><path d="M 0.265625 -2.6875 C 0.265625 -3.207031 0.382812 -3.675781 0.625 -4.09375 C 0.863281 -4.507812 1.1875 -4.832031 1.59375 -5.0625 C 2.007812 -5.300781 2.472656 -5.421875 2.984375 -5.421875 C 3.578125 -5.421875 4.097656 -5.265625 4.546875 -4.953125 C 5.003906 -4.648438 5.320312 -4.226562 5.5 -3.6875 L 4.265625 -3.6875 C 4.140625 -3.945312 3.960938 -4.140625 3.734375 -4.265625 C 3.515625 -4.390625 3.265625 -4.453125 2.984375 -4.453125 C 2.671875 -4.453125 2.390625 -4.378906 2.140625 -4.234375 C 1.898438 -4.085938 1.710938 -3.878906 1.578125 -3.609375 C 1.441406 -3.347656 1.375 -3.039062 1.375 -2.6875 C 1.375 -2.332031 1.441406 -2.019531 1.578125 -1.75 C 1.710938 -1.476562 1.898438 -1.269531 2.140625 -1.125 C 2.390625 -0.976562 2.671875 -0.90625 2.984375 -0.90625 C 3.265625 -0.90625 3.515625 -0.96875 3.734375 -1.09375 C 3.960938 -1.226562 4.140625 -1.425781 4.265625 -1.6875 L 5.5 -1.6875 C 5.320312 -1.132812 5.007812 -0.707031 4.5625 -0.40625 C 4.113281 -0.101562 3.585938 0.046875 2.984375 0.046875 C 2.472656 0.046875 2.007812 -0.0664062 1.59375 -0.296875 C 1.1875 -0.535156 0.863281 -0.859375 0.625 -1.265625 C 0.382812 -1.679688 0.265625 -2.15625 0.265625 -2.6875 Z M 0.265625 -2.6875 "/></g></g></g><g fill="#e6efe9" fill-opacity="1"><g transform="translate(253.15158, 52.627226)"><g><path d="M 3.015625 0.046875 C 2.515625 0.046875 2.050781 -0.0664062 1.625 -0.296875 C 1.207031 -0.535156 0.875 -0.863281 0.625 -1.28125 C 0.382812 -1.695312 0.265625 -2.164062 0.265625 -2.6875 C 0.265625 -3.207031 0.382812 -3.675781 0.625 -4.09375 C 0.875 -4.507812 1.207031 -4.835938 1.625 -5.078125 C 2.050781 -5.316406 2.515625 -5.4375 3.015625 -5.4375 C 3.523438 -5.4375 3.988281 -5.316406 4.40625 -5.078125 C 4.820312 -4.835938 5.148438 -4.507812 5.390625 -4.09375 C 5.628906 -3.675781 5.75 -3.207031 5.75 -2.6875 C 5.75 -2.164062 5.628906 -1.695312 5.390625 -1.28125 C 5.148438 -0.863281 4.816406 -0.535156 4.390625 -0.296875 C 3.972656 -0.0664062 3.515625 0.046875 3.015625 0.046875 Z M 3.015625 -0.90625 C 3.335938 -0.90625 3.617188 -0.976562 3.859375 -1.125 C 4.109375 -1.269531 4.300781 -1.476562 4.4375 -1.75 C 4.582031 -2.019531 4.65625 -2.332031 4.65625 -2.6875 C 4.65625 -3.050781 4.582031 -3.363281 4.4375 -3.625 C 4.300781 -3.894531 4.109375 -4.101562 3.859375 -4.25 C 3.617188 -4.394531 3.335938 -4.46875 3.015625 -4.46875 C 2.691406 -4.46875 2.40625 -4.394531 2.15625 -4.25 C 1.90625 -4.101562 1.710938 -3.894531 1.578125 -3.625 C 1.441406 -3.363281 1.375 -3.050781 1.375 -2.6875 C 1.375 -2.332031 1.441406 -2.019531 1.578125 -1.75 C 1.710938 -1.476562 1.90625 -1.269531 2.15625 -1.125 C 2.40625 -0.976562 2.691406 -0.90625 3.015625 -0.90625 Z M 3.015625 -0.90625 "/></g></g></g><g fill="#e6efe9" fill-opacity="1"><g transform="translate(261.749343, 52.627226)"><g><path d="M 2.40625 -5.359375 C 2.96875 -5.359375 3.460938 -5.242188 3.890625 -5.015625 C 4.316406 -4.796875 4.644531 -4.484375 4.875 -4.078125 C 5.101562 -3.671875 5.21875 -3.203125 5.21875 -2.671875 C 5.21875 -2.128906 5.101562 -1.65625 4.875 -1.25 C 4.644531 -0.851562 4.316406 -0.546875 3.890625 -0.328125 C 3.460938 -0.109375 2.96875 0 2.40625 0 L 0.53125 0 L 0.53125 -5.359375 Z M 2.359375 -0.90625 C 2.921875 -0.90625 3.351562 -1.054688 3.65625 -1.359375 C 3.96875 -1.671875 4.125 -2.109375 4.125 -2.671875 C 4.125 -3.222656 3.96875 -3.65625 3.65625 -3.96875 C 3.351562 -4.289062 2.921875 -4.453125 2.359375 -4.453125 L 1.609375 -4.453125 L 1.609375 -0.90625 Z M 2.359375 -0.90625 "/></g></g></g><g fill="#e6efe9" fill-opacity="1"><g transform="translate(269.825104, 52.627226)"><g><path d="M 1.609375 -4.484375 L 1.609375 -3.140625 L 3.40625 -3.140625 L 3.40625 -2.296875 L 1.609375 -2.296875 L 1.609375 -0.875 L 3.640625 -0.875 L 3.640625 0 L 0.53125 0 L 0.53125 -5.359375 L 3.640625 -5.359375 L 3.640625 -4.484375 Z M 1.609375 -4.484375 "/></g></g></g><g clip-path="url(#2a98365a0f)"><path fill="#c05746" d="M 82.246094 37.6875 C 83.238281 38.203125 84.105469 38.917969 84.707031 39.917969 C 85.753906 41.660156 85.90625 44.414062 85.90625 46.402344 L 85.90625 52.53125 C 85.90625 53.730469 85.988281 56.273438 86.847656 57.222656 C 87.652344 58.109375 89.480469 58.234375 90.582031 58.234375 C 90.75 58.234375 90.921875 58.21875 91.089844 58.207031 C 91.296875 58.195312 91.507812 58.179688 91.71875 58.179688 L 92.46875 58.179688 L 92.46875 62.386719 L 90.53125 62.386719 C 88.210938 62.386719 84.984375 62.109375 83.273438 60.316406 C 81.515625 58.472656 81.308594 54.683594 81.308594 52.277344 L 81.308594 46.070312 C 81.308594 44.542969 81.140625 42.265625 80.066406 41.0625 C 79.332031 40.246094 78.164062 39.921875 77.113281 39.789062 L 76.457031 39.710938 L 76.457031 35.609375 L 77.113281 35.527344 C 78.160156 35.398438 79.332031 35.074219 80.0625 34.253906 C 81.140625 33.050781 81.308594 30.761719 81.308594 29.226562 L 81.308594 23.058594 C 81.308594 20.632812 81.519531 16.867188 83.28125 14.996094 C 85 13.167969 88.179688 12.878906 90.53125 12.878906 L 92.46875 12.878906 L 92.46875 17.085938 L 90.789062 17.085938 C 89.65625 17.085938 87.707031 17.203125 86.871094 18.109375 C 85.992188 19.0625 85.90625 21.59375 85.90625 22.804688 L 85.90625 28.96875 C 85.90625 30.953125 85.75 33.703125 84.707031 35.445312 C 84.105469 36.441406 83.238281 37.164062 82.246094 37.6875 Z M 144.121094 37.6875 C 143.132812 37.164062 142.261719 36.441406 141.660156 35.445312 C 140.617188 33.703125 140.460938 30.953125 140.460938 28.96875 L 140.460938 22.804688 C 140.460938 21.59375 140.375 19.0625 139.496094 18.109375 C 138.660156 17.203125 136.710938 17.085938 135.578125 17.085938 L 133.898438 17.085938 L 133.898438 12.878906 L 135.835938 12.878906 C 138.1875 12.878906 141.367188 13.167969 143.085938 14.996094 C 144.847656 16.867188 145.058594 20.632812 145.058594 23.058594 L 145.058594 29.226562 C 145.058594 30.761719 145.226562 33.050781 146.304688 34.253906 C 147.035156 35.074219 148.207031 35.398438 149.253906 35.527344 L 149.910156 35.609375 L 149.910156 39.710938 L 149.253906 39.789062 C 148.203125 39.921875 147.035156 40.246094 146.300781 41.0625 C 145.226562 42.265625 145.058594 44.542969 145.058594 46.070312 L 145.058594 52.277344 C 145.058594 54.683594 144.851562 58.472656 143.09375 60.316406 C 141.382812 62.109375 138.15625 62.386719 135.835938 62.386719 L 133.898438 62.386719 L 133.898438 58.179688 L 134.648438 58.179688 C 134.859375 58.179688 135.070312 58.195312 135.277344 58.207031 C 135.445312 58.21875 135.617188 58.234375 135.785156 58.234375 C 136.886719 58.234375 138.714844 58.109375 139.519531 57.222656 C 140.378906 56.273438 140.460938 53.730469 140.460938 52.53125 L 140.460938 46.402344 C 140.460938 44.414062 140.613281 41.660156 141.660156 39.917969 C 142.261719 38.917969 143.128906 38.203125 144.121094 37.6875 " fill-opacity="1" fill-rule="evenodd"/></g><path fill="#5171a5" d="M 121.507812 47.28125 L 121.507812 43.449219 L 136.417969 43.449219 L 136.417969 47.28125 L 121.507812 47.28125 " fill-opacity="1" fill-rule="evenodd"/><path fill="#f5b700" d="M 90.910156 37.609375 L 98.941406 42.910156 L 98.941406 47.949219 L 86.527344 39.492188 L 86.527344 35.679688 L 98.941406 27.324219 L 98.941406 32.351562 L 90.910156 37.609375 " fill-opacity="1" fill-rule="evenodd"/><path fill="#399e5a" d="M 120.457031 37.609375 L 112.433594 32.351562 L 112.433594 27.324219 L 124.847656 35.679688 L 124.847656 39.492188 L 112.433594 47.949219 L 112.433594 42.910156 L 120.457031 37.609375 " fill-opacity="1" fill-rule="evenodd"/><path fill="#827081" d="M 112.789062 22.171875 L 102.929688 54.261719 L 98.585938 53.09375 L 108.449219 21.003906 L 112.789062 22.171875 " fill-opacity="1" fill-rule="evenodd"/></svg>